<svg width="104" height="35" viewBox="0 0 104 35" fill="none" xmlns="http://www.w3.org/2000/svg">
<path fill-rule="evenodd" clip-rule="evenodd" d="M99.9537 26.2567C102.512 25.3844 104 23.5267 104 20.7967C104 19.4516 103.533 18.2217 102.638 17.1846C101.315 15.6467 99.0969 14.6851 96.1406 14.3771C95.1311 14.2519 92.5991 13.9301 92.5991 12.5313C92.5991 10.9815 97.6228 10.5722 98.9421 12.3405C99.286 12.8075 99.292 13.3697 99.292 13.9161H104C104 12.4399 103.747 11.0709 102.91 9.80329C101.937 8.30319 99.9134 6.53486 95.8671 6.53486C92.7942 6.53486 90.5377 7.34154 89.136 8.91913C88.4743 9.64831 87.7363 10.9179 87.7363 12.7618C87.7363 14.1466 88.2029 15.3388 89.136 16.3759C89.7976 17.0673 90.6544 17.6455 91.7042 18.0667C92.754 18.5297 94.0772 18.8357 95.5956 18.9906C96.9189 19.1436 99.1754 19.5668 99.1754 20.7967C99.1754 21.0272 99.0969 21.4127 98.4735 21.7186C97.2025 22.3902 93.7273 22.4359 92.8706 21.0272C92.5247 20.4808 92.4442 19.7794 92.4442 19.1436L87.7363 19.0681C87.7363 22.3882 88.9369 25.0268 92.2492 26.2169C94.4332 27.0971 97.7415 26.9839 99.9537 26.2567ZM52.697 7.35346C47.3455 8.71646 44.1016 14.1168 45.4832 19.4019C46.8629 24.687 52.327 27.8919 57.6785 26.5289C61.8958 25.446 63.6032 23.1611 64.8561 19.5609L59.5629 19.247C58.8087 20.4888 57.8414 21.2934 56.4115 21.6908C54.501 22.1637 52.2526 21.4305 51.1545 19.7814L65.3548 16.3064C64.7234 10.3 58.7102 5.81959 52.697 7.35346ZM57.7107 12.73C58.2859 13.1035 58.7947 13.5327 59.1727 14.0731L50.3038 16.2666C50.3782 15.6149 50.6236 14.999 50.9253 14.4486C52.3149 12.1577 55.3758 11.4127 57.7107 12.73ZM80.8865 7.03556L75.8286 18.1065L70.3806 7.03556H64.0396L73.7672 26.8329H77.892L87.1913 7.03556H80.8865ZM43.5727 26.8329L43.5325 0H38.0865V9.3026C36.3348 7.87999 34.1166 7.03556 31.665 7.03556C26.1406 7.07331 21.6659 11.5319 21.7041 16.9918C21.7443 22.4498 26.2572 26.8706 31.7817 26.8329C34.195 26.8329 36.4132 25.9487 38.1247 24.5639V26.8329H43.5727ZM35.2448 20.3735C34.3116 21.2974 33.0668 21.7961 31.7435 21.8359C30.4202 21.8359 29.1753 21.3352 28.2422 20.4133C27.307 19.4894 26.8022 18.2595 26.8022 16.9521C26.764 15.6467 27.307 14.4546 28.2019 13.4929C29.1371 12.571 30.382 12.0703 31.7053 12.0703C33.0286 12.0703 34.2734 12.571 35.2066 13.4552C36.1397 14.3771 36.6465 15.607 36.6847 16.9144C36.6847 18.2217 36.1799 19.4516 35.2448 20.3735Z" fill="#1D1A2F"/>
<path fill-rule="evenodd" clip-rule="evenodd" d="M1.34064 34.5002V29.4933H18.8794V34.5002H1.34064ZM0.5 17.3375C0.5 29.99 19.722 29.99 19.722 17.3375C19.722 14.1843 19.722 6.95801 19.722 6.95801H14.6621C14.6621 10.29 14.6621 13.622 14.6621 16.952C14.6621 23.4015 5.55789 23.4015 5.55789 16.952C5.55789 13.622 5.55789 10.29 5.55789 6.95801H0.5C0.5 6.95801 0.5 14.1843 0.5 17.3375Z" fill="#1B5BF7"/>
</svg>
